<svg xmlns="http://www.w3.org/2000/svg" viewBox="0 0 434.66 186.36"><defs><style>.a{isolation:isolate;}.b,.i,.j{fill:none;stroke-miterlimit:10;}.b{stroke:#ddd;stroke-width:2px;}.c{fill:#f4f2ed;}.d,.h{fill:#230753;}.d,.g{opacity:0.1;mix-blend-mode:multiply;}.e{fill:#ddd;}.f{fill:#ff0e00;}.i{stroke:#ff0e00;}.j{stroke:#72727c;}.k{fill:#72727c;}.l{fill:#00b8e2;}.m{fill:#040028;}.n{fill:#fff;}.o{fill:#cfcfcf;}.p{fill:#00add4;}.q{fill:#b5052f;}.r{fill:#ce0636;}</style></defs><title>astro</title><g class="a"><path class="b" d="M219.9,389.35s61.8-63.82,110.53-23.42,78.73,101.4,156.14,83.88S582.36,349.12,565,315.73" transform="translate(-161.33 -267.54)"/><path class="c" d="M578.42,307.6l-27.91-17.32a5.17,5.17,0,0,0-7.13,1.67l-4.89,7.88a5.18,5.18,0,0,0,1.67,7.13l27.91,17.32Z" transform="translate(-161.33 -267.54)"/><path class="d" d="M541.86,294.6a5.17,5.17,0,0,1,7.13-1.67l27.83,17.27,1.61-2.6-27.91-17.32a5.17,5.17,0,0,0-7.13,1.67l-4.89,7.88a5.19,5.19,0,0,0-.42.85Z" transform="translate(-161.33 -267.54)"/><polygon class="e" points="411.77 48.63 411.77 48.63 406.74 56.74 416.65 58.61 419.76 53.59 419.76 53.59 422.88 48.57 417.09 40.07 411.77 48.63"/><rect class="f" x="576.48" y="320.42" width="11.8" height="3.02" transform="translate(-159.63 379.39) rotate(-58.17)"/><polygon class="e" points="432.49 51.62 425.44 50.17 422.48 54.95 422.33 55.19 419.21 60.21 423.64 65.88 428.06 58.76 427.92 58.65 428.07 58.75 432.49 51.62"/><g class="g"><polygon class="h" points="410.17 51.23 410.17 51.23 415.49 42.66 421.23 51.09 423.84 52.77 423.84 52.77 430.88 54.22 432.49 51.62 425.44 50.17 425.44 50.18 422.83 48.5 417.09 40.07 411.77 48.63 411.77 48.63 406.74 56.74 406.75 56.74 410.17 51.23"/><polygon class="h" points="426.32 61.25 426.46 61.34 426.46 61.34 426.32 61.25"/></g><path class="f" d="M555,290.85a1.31,1.31,0,0,1,.42,1.81l-11,17.69a1.31,1.31,0,0,1-1.81.42h0a1.31,1.31,0,0,1-.42-1.81l11-17.69a1.31,1.31,0,0,1,1.81-.42Z" transform="translate(-161.33 -267.54)"/><path class="d" d="M555,290.85a1.3,1.3,0,0,0-1.33,0,1.26,1.26,0,0,1,.35.13,1.31,1.31,0,0,1,.42,1.81l-11,17.69a1.29,1.29,0,0,1-.47.43,1.3,1.3,0,0,0,1.46-.55l11-17.69A1.31,1.31,0,0,0,555,290.85Z" transform="translate(-161.33 -267.54)"/><path class="i" d="M562.47,326a.46.46,0,0,1,.2.61l-13.8,22.22a.45.45,0,0,1-.63.09l-17.37-10.78a.46.46,0,0,1-.2-.61l13.8-22.22a.45.45,0,0,1,.63-.09Z" transform="translate(-161.33 -267.54)"/><line class="i" x1="372.39" y1="72.35" x2="386.61" y2="49.43"/><line class="i" x1="376" y1="74.59" x2="390.23" y2="51.67"/><line class="i" x1="379.61" y1="76.83" x2="393.84" y2="53.91"/><line class="i" x1="383.22" y1="79.08" x2="397.45" y2="56.15"/><line class="i" x1="371.54" y1="66.43" x2="389.75" y2="77.73"/><line class="i" x1="373.9" y1="62.61" x2="392.11" y2="73.91"/><line class="i" x1="376.27" y1="58.8" x2="394.48" y2="70.1"/><line class="i" x1="378.64" y1="54.98" x2="396.85" y2="66.28"/><line class="i" x1="381.01" y1="51.17" x2="399.22" y2="62.47"/><line class="i" x1="391.63" y1="52.54" x2="393.95" y2="48.8"/><path class="i" d="M577.46,301.83a.46.46,0,0,0,.63-.09l13.8-22.23a.45.45,0,0,0-.2-.6l-17.37-10.79a.46.46,0,0,0-.63.09l-13.79,22.23a.46.46,0,0,0,.2.61Z" transform="translate(-161.33 -267.54)"/><line class="i" x1="415.83" y1="2.36" x2="401.6" y2="25.28"/><line class="i" x1="419.44" y1="4.6" x2="405.22" y2="27.52"/><line class="i" x1="423.06" y1="6.84" x2="408.83" y2="29.76"/><line class="i" x1="426.67" y1="9.08" x2="412.44" y2="32"/><line class="i" x1="410.15" y1="4.22" x2="428.36" y2="15.52"/><line class="i" x1="407.78" y1="8.04" x2="425.99" y2="19.34"/><line class="i" x1="405.41" y1="11.85" x2="423.62" y2="23.15"/><line class="i" x1="403.04" y1="15.67" x2="421.25" y2="26.97"/><line class="i" x1="400.68" y1="19.48" x2="418.88" y2="30.78"/><line class="i" x1="406.62" y1="28.39" x2="404.3" y2="32.13"/><line class="j" x1="428.07" y1="58.75" x2="433.49" y2="62.11"/><circle class="f" cx="594.33" cy="329.32" r="1.67" transform="matrix(0.53, -0.85, 0.85, 0.53, -160.17, 393.2)"/><path class="d" d="M595.21,327.9a1.66,1.66,0,0,0-1.32-.19,1.6,1.6,0,0,1,.28.13,1.66,1.66,0,0,1-.44,3,1.66,1.66,0,0,0,1.48-3Z" transform="translate(-161.33 -267.54)"/><path class="k" d="M558.73,314.64a.56.56,0,0,1,.18.77h0a.56.56,0,0,1-.78.18l-9.53-5.92a.56.56,0,0,1-.18-.77h0a.56.56,0,0,1,.77-.18Z" transform="translate(-161.33 -267.54)"/><path class="l" d="M187,367.86s-10.8-1.16-9.72-13.46l-4.46-4.06s-4.68,9.31,2.44,17.62S190,373.13,190,373.13Z" transform="translate(-161.33 -267.54)"/><path class="d" d="M172.84,350.35l.78.71a16.26,16.26,0,0,0,3.24,15.47c4.82,5.63,9.86,6,12.62,5.65l.54,1s-7.62,3.15-14.74-5.16S172.84,350.35,172.84,350.35Z" transform="translate(-161.33 -267.54)"/><path class="e" d="M213.41,404.6a13.49,13.49,0,0,0,19,1.66l12.06-10.12a13.49,13.49,0,0,0,1.66-19l-25-29.73a13.48,13.48,0,0,0-19-1.66l-12.07,10.13a13.49,13.49,0,0,0-1.66,19Z" transform="translate(-161.33 -267.54)"/><path class="d" d="M186.57,360.47a13.46,13.46,0,0,0,2.95,11l25,29.73a13.49,13.49,0,0,0,19,1.66l12.06-10.12a13.44,13.44,0,0,0,3.53-4.61,13.44,13.44,0,0,1-4.61,8l-12.06,10.12a13.49,13.49,0,0,1-19-1.66l-25-29.73A13.48,13.48,0,0,1,186.57,360.47Z" transform="translate(-161.33 -267.54)"/><path class="e" d="M161.95,320.55c-1.44,17.47,13,32.93,32.29,34.52s36.07-11.29,37.5-28.76-13-32.93-32.28-34.52S163.39,303.07,161.95,320.55Z" transform="translate(-161.33 -267.54)"/><ellipse class="m" cx="198.79" cy="327.72" rx="29.67" ry="30.68" transform="translate(-305.51 231.35) rotate(-85.28)"/><path class="n" d="M224.84,343.54c-6.07,11.42-19,19.74-38,15.5-18.16-4-26.83-17.53-25.28-36.29a35.14,35.14,0,0,1,5-15.41s-6.64,36.51,22.12,43.24C214.81,356.7,224.84,343.54,224.84,343.54Z" transform="translate(-161.33 -267.54)"/><path class="e" d="M174.48,353.83l2-2.64c1.16-1.61-.34-4.67-3.34-6.85s-6.38-2.63-7.55-1l-1.82,2.47Z" transform="translate(-161.33 -267.54)"/><ellipse class="n" cx="169.17" cy="349.73" rx="3.59" ry="6.72" transform="translate(-374.74 14.67) rotate(-54.18)"/><path class="n" d="M215.59,308.07s-3.56-4.42-11.69-5.94c0,0-6.38-1.32-6.59.93,0,0-.6,2.54,4.63,2.16C201.94,305.22,210.06,304.5,215.59,308.07Z" transform="translate(-161.33 -267.54)"/><path class="n" d="M267.87,324.63A7.63,7.63,0,0,0,264.76,335l1.81,3.43a7.63,7.63,0,0,0,10.28,3.27h0A7.63,7.63,0,0,0,280,331.33l-1.81-3.43a7.63,7.63,0,0,0-10.28-3.27Z" transform="translate(-161.33 -267.54)"/><path class="n" d="M277.6,330.38a2.51,2.51,0,0,0-1.39,3.27h0a2.51,2.51,0,0,0,3.27,1.39l7-2.83a2.51,2.51,0,0,0,1.39-3.27h0a2.51,2.51,0,0,0-3.27-1.39Z" transform="translate(-161.33 -267.54)"/><path class="n" d="M276.1,325.72a2.65,2.65,0,0,0-.94,3.62h0a2.66,2.66,0,0,0,3.69.6l7-4.52a2.65,2.65,0,0,0,.94-3.62h0a2.65,2.65,0,0,0-3.69-.6Z" transform="translate(-161.33 -267.54)"/><path class="n" d="M271.19,324.08a2.65,2.65,0,0,0,.35,3.72h0a2.65,2.65,0,0,0,3.67-.69l5-6.63a2.65,2.65,0,0,0-.34-3.72h0a2.65,2.65,0,0,0-3.68.7Z" transform="translate(-161.33 -267.54)"/><path class="n" d="M266.08,328.09a2.46,2.46,0,0,0,2.21,2.69h0a2.46,2.46,0,0,0,2.78-2.08l.86-7.17a2.46,2.46,0,0,0-2.21-2.69h0a2.46,2.46,0,0,0-2.79,2.09Z" transform="translate(-161.33 -267.54)"/><path class="n" d="M276.31,334.19a2.47,2.47,0,0,0-2.51,2.42h0a2.46,2.46,0,0,0,2.29,2.62l7.21.31a2.46,2.46,0,0,0,2.52-2.4h0a2.46,2.46,0,0,0-2.29-2.62Z" transform="translate(-161.33 -267.54)"/><g class="g"><path class="h" d="M276.4,325.53l3.16-5.9a3.21,3.21,0,0,0,.37-2.82,2.65,2.65,0,0,1,.28,3.66l-3.8,5.05Z" transform="translate(-161.33 -267.54)"/><path class="h" d="M271.72,323.37l-.42-2.69c0-.57-.21-1.48-.87-1.67,2.33.92,1.34,3.6,1.29,4.36Z" transform="translate(-161.33 -267.54)"/><path class="h" d="M276.21,340.82a7.42,7.42,0,0,0,2.61-2.3l3.83.17a2.46,2.46,0,0,0,2.52-2.4,2.58,2.58,0,0,0-.26-1.23,2.54,2.54,0,0,1,.9,2.07,2.46,2.46,0,0,1-2.52,2.4l-3.83-.17a7.41,7.41,0,0,1-2.61,2.3A7.61,7.61,0,0,1,267,339,7.59,7.59,0,0,0,276.21,340.82Z" transform="translate(-161.33 -267.54)"/><path class="h" d="M279.13,329.75h0l6-5.18c1.13-1.14,1.61-2.16,1.11-3.29a2.39,2.39,0,0,1,.48.52,2.65,2.65,0,0,1-.94,3.62Z" transform="translate(-161.33 -267.54)"/><path class="h" d="M282.89,333.67l-1.81.73h0l4.76-3c1.23-.82,1.91-2,1.39-3.28l-.06-.12a2.45,2.45,0,0,1,.71,1,2.51,2.51,0,0,1-1.39,3.27Z" transform="translate(-161.33 -267.54)"/></g><path class="n" d="M266.86,344.3s-20.17,14.34-27.32,8.26l.83-17.36s8.75,1.94,19.7-4.05c0,0-.63.94,3.71,8.38Z" transform="translate(-161.33 -267.54)"/><path class="d" d="M265.19,341.7l1.67,2.6s-20.17,14.34-27.32,8.26l.11-2.29C246.72,353.78,261.93,343.91,265.19,341.7Z" transform="translate(-161.33 -267.54)"/><path class="n" d="M259.93,331.22l.14-.07a.61.61,0,0,0,0,.32Z" transform="translate(-161.33 -267.54)"/><path class="l" d="M261.26,329.5a2.91,2.91,0,0,0-.83,4l5.35,9.62a2.92,2.92,0,0,0,3.84,1.4h0a2.91,2.91,0,0,0,.83-4l-5.36-9.63a2.91,2.91,0,0,0-3.84-1.4Z" transform="translate(-161.33 -267.54)"/><path class="d" d="M268.07,344.62a2.91,2.91,0,0,0,.83-4L263.55,331a3.28,3.28,0,0,0-2-1.6,3,3,0,0,1,3.57,1.51l5.36,9.63a2.91,2.91,0,0,1-.83,4,2.47,2.47,0,0,1-1.82.2C267.9,344.69,268,344.67,268.07,344.62Z" transform="translate(-161.33 -267.54)"/><path class="n" d="M231.27,332s-2.43-1.26-6.42.18L206.26,339a13.81,13.81,0,0,0-7.23,6.63c-2.67,5.16-8,14.16-8,14.16a4.79,4.79,0,0,0,.65,5.36c2.21,2.75,21.62,24.37,21.62,24.37s3.51,2.93,3.18,6.1a2.45,2.45,0,0,0,2.61,3s2.19-.45,2.38,2.35,10.39,16.48,17.28,8.75,27.86-29.25,27.86-29.25,4-3.95-.66-8.4-5.57-1.19-6-6.54c0,0-.07-2.89-2.17-3.27s-1.2-1.77-1.2-1.77a2.44,2.44,0,0,0,0-3.09c-1.3-1.46,1.27-4.38-4-4.81Z" transform="translate(-161.33 -267.54)"/><g class="g"><path class="h" d="M256.55,360.49a1.29,1.29,0,0,0-.1.2c-.47-1.55,1-3.85-3.69-4.23l-21.28-20.58s-2.43-1.26-6.41.18-18.6,6.81-18.6,6.81a13.81,13.81,0,0,0-7.23,6.63c-2.68,5.17-8.05,14.16-8.05,14.16a3.41,3.41,0,0,0-.22.48,4.71,4.71,0,0,1,0-4.36s5.38-9,8-14.16a13.81,13.81,0,0,1,7.23-6.63l18.6-6.81c4-1.44,6.42-.18,6.42-.18l21.28,20.58c5.28.43,2.71,3.35,4,4.81A2.44,2.44,0,0,1,256.55,360.49Z" transform="translate(-161.33 -267.54)"/><path class="h" d="M266.1,375.95c-4.64-4.45-5.57-1.19-6-6.54,0,0-.07-2.89-2.17-3.27s-1.21-1.77-1.21-1.77a2.74,2.74,0,0,0,.48-2.24,3.35,3.35,0,0,0,.51.14c2.09.38,2.17,3.27,2.17,3.27.39,5.35,1.32,2.09,6,6.54,2.51,2.4,2.49,4.65,2,6.22A7.86,7.86,0,0,0,266.1,375.95Z" transform="translate(-161.33 -267.54)"/></g><path class="o" d="M219.51,341.56l-1.36,7.14a3.67,3.67,0,0,0,.7,2.73l12.87,18.62c1.16,1.56,2.87,1.53,4.7.9l17.23-7.25A3.15,3.15,0,0,0,254.9,361l.62-4.84" transform="translate(-161.33 -267.54)"/><path class="o" d="M220.9,367.92c-1.06,1-.73,3.09.73,4.57s3.5,1.83,4.56.78.73-3.09-.73-4.56S222,366.88,220.9,367.92Z" transform="translate(-161.33 -267.54)"/><path class="o" d="M213.45,355.41c-.89.87-.61,2.58.6,3.81s2.92,1.53,3.8.65.61-2.58-.61-3.8S214.33,354.54,213.45,355.41Z" transform="translate(-161.33 -267.54)"/><path class="d" d="M225.2,369.52c-1.46-1.48-3.5-1.83-4.56-.78a2,2,0,0,0-.31.41,2.09,2.09,0,0,1,.58-1.22c1.06-1,3.1-.69,4.56.78,1.28,1.3,1.69,3,1,4.16A4.13,4.13,0,0,0,225.2,369.52Z" transform="translate(-161.33 -267.54)"/><path class="d" d="M217,356.88c-1.22-1.23-2.91-1.52-3.8-.66a1.6,1.6,0,0,0-.23.3,1.77,1.77,0,0,1,.5-1.12c.88-.87,2.58-.57,3.8.66a3,3,0,0,1,.84,3.5A3.49,3.49,0,0,0,217,356.88Z" transform="translate(-161.33 -267.54)"/><path class="e" d="M234.14,363.5c1,1.4,2.59,1.42,4.09.91L254.46,358a3,3,0,0,0,.3-4.18l-14.13-19a3,3,0,0,0-4.09-.91l-16.22,6.42a3,3,0,0,0-.31,4.18Z" transform="translate(-161.33 -267.54)"/><path class="e" d="M223,368.79a1.78,1.78,0,0,0,.12,2.51h0a1.77,1.77,0,0,0,2.51,0l5.3-5.54a1.78,1.78,0,0,0-.12-2.51h0a1.78,1.78,0,0,0-2.51,0Z" transform="translate(-161.33 -267.54)"/><path class="d" d="M223,368.79l5.3-5.54a1.78,1.78,0,0,1,2.51,0,1.88,1.88,0,0,1,.42.59A1.76,1.76,0,0,0,229,364l-5.3,5.54a1.73,1.73,0,0,0-.3,1.92,1.65,1.65,0,0,1-.18-.14A1.78,1.78,0,0,1,223,368.79Z" transform="translate(-161.33 -267.54)"/><path class="m" d="M229.35,349.39a1.84,1.84,0,0,0,2.58.23l9.92-4.07a1.84,1.84,0,0,0,.56-2.54l-3.84-5.27c-.56-.77-1.33-.8-2.59-.24l-9.92,4.07a1.84,1.84,0,0,0-.56,2.53Z" transform="translate(-161.33 -267.54)"/><path class="n" d="M253.23,399.43s1.19-1.78-2.77-5.94-13.81-19.7-32.27-.72L243.62,414s2.87,1.34,4.51-.74S253.23,399.43,253.23,399.43Z" transform="translate(-161.33 -267.54)"/><path class="l" d="M243.37,395.28l-6.09-4.45a4.22,4.22,0,0,1-.65-5.92,4.79,4.79,0,0,1,1.1-1.06c5.88,1.27,9.79,6.33,12.12,9a4.88,4.88,0,0,1-.64,1.27A4.22,4.22,0,0,1,243.37,395.28Z" transform="translate(-161.33 -267.54)"/><path class="d" d="M251.81,402.62s1.19-1.78-2.77-5.94c-3.79-4-14-19.14-30.84-3.9h0c18.46-19,28.3-3.44,32.27.72s2.77,5.94,2.77,5.94.29.27-1.43,3.19Z" transform="translate(-161.33 -267.54)"/><path class="l" d="M273.47,422.31s-3.84,2.77-12.68-3.85c0,0-6.5-4.87-12.42-4.28,0,0-2.61.81-2.57-2.21s6.58-13.43,6.58-13.43.44-1.21,3-.13a27.34,27.34,0,0,1,11.07,7.26s1-1.56,4.34-8.48,7.52-1.44,7.52-1.44Z" transform="translate(-161.33 -267.54)"/><path class="l" d="M273.47,422.31s-3.84,2.77-12.68-3.85c0,0-6.5-4.87-12.42-4.28,0,0-2.61.81-2.57-2.21s6.58-13.43,6.58-13.43.44-1.21,3-.13a27.34,27.34,0,0,1,11.07,7.26s1-1.56,4.34-8.48,7.52-1.44,7.52-1.44Z" transform="translate(-161.33 -267.54)"/><g class="g"><path class="h" d="M276.69,398s-2.81-3.67-5.65-1.2c3.3-6.29,7.31-1,7.31-1l-4.88,26.57a3.64,3.64,0,0,1-1.33.47Z" transform="translate(-161.33 -267.54)"/><path class="h" d="M264.84,407.91a27.41,27.41,0,0,0-11.07-7.26,3.47,3.47,0,0,0-2.45-.35c.64-1.07,1.07-1.76,1.07-1.76s.44-1.21,3-.13a27.5,27.5,0,0,1,10.79,7C265.21,407.33,264.84,407.91,264.84,407.91Z" transform="translate(-161.33 -267.54)"/></g><path class="e" d="M270.36,415.62c-.53,3.39.59,6.38,2.52,6.69h0c1.93.3,3.93-2.19,4.47-5.58l2.38-14.88c.53-3.39-.6-6.38-2.52-6.69h0c-1.93-.31-3.93,2.19-4.47,5.57Z" transform="translate(-161.33 -267.54)"/><path class="d" d="M278.58,397.18c-1.93-.31-3.93,2.18-4.47,5.57l-2.38,14.88a9.15,9.15,0,0,0,.28,4.3c-1.38-.94-2.11-3.48-1.66-6.32l2.38-14.88c.54-3.39,2.54-5.88,4.47-5.57a3.18,3.18,0,0,1,2.24,2.39A2.13,2.13,0,0,0,278.58,397.18Z" transform="translate(-161.33 -267.54)"/><path class="n" d="M206.72,405a7.78,7.78,0,0,0-7.25-8.28l-4-.29a7.79,7.79,0,0,0-8.39,7.13h0a7.79,7.79,0,0,0,7.26,8.28l3.95.29a7.78,7.78,0,0,0,8.39-7.12Z" transform="translate(-161.33 -267.54)"/><path class="n" d="M196.49,410.33a2.57,2.57,0,0,0-2.09-3h0a2.56,2.56,0,0,0-3,2.08L190.1,417a2.56,2.56,0,0,0,2.08,3h0a2.57,2.57,0,0,0,3-2.08Z" transform="translate(-161.33 -267.54)"/><path class="n" d="M201.32,411.55a2.69,2.69,0,0,0-2.62-2.77h0a2.7,2.7,0,0,0-2.51,2.86l.16,8.46a2.69,2.69,0,0,0,2.61,2.77h0a2.7,2.7,0,0,0,2.52-2.86Z" transform="translate(-161.33 -267.54)"/><path class="n" d="M205.4,408.2a2.7,2.7,0,0,0-3.41-1.71h0a2.69,2.69,0,0,0-1.38,3.55l3,7.9a2.7,2.7,0,0,0,3.41,1.71h0a2.7,2.7,0,0,0,1.38-3.55Z" transform="translate(-161.33 -267.54)"/><path class="n" d="M204.69,401.62a2.52,2.52,0,0,0-3.53.46h0a2.52,2.52,0,0,0,.3,3.54l5.73,4.62a2.51,2.51,0,0,0,3.52-.45h0a2.51,2.51,0,0,0-.29-3.54Z" transform="translate(-161.33 -267.54)"/><path class="n" d="M193.88,407.16a2.51,2.51,0,0,0-.72-3.48h0a2.51,2.51,0,0,0-3.5.57l-4.17,6.07a2.52,2.52,0,0,0,.72,3.48h0a2.51,2.51,0,0,0,3.5-.57Z" transform="translate(-161.33 -267.54)"/><g class="g"><path class="h" d="M209,409.21a2.52,2.52,0,0,0-.29-3.54l-3.81-3.07a7.77,7.77,0,0,0-4.37-5.68,7.79,7.79,0,0,1,6.09,6.25l3.8,3.07a2.57,2.57,0,0,1-3.23,4l-.07-.06A2.61,2.61,0,0,0,209,409.21Z" transform="translate(-161.33 -267.54)"/><path class="h" d="M205.32,419.07c1.33-.51,1.63-1.32,1.38-3.55l-1-6.49h0c.19.15-.22-.09,0,0l2.71,7.06a2.7,2.7,0,0,1-1.38,3.55,2.52,2.52,0,0,1-2.47-.44A2.26,2.26,0,0,0,205.32,419.07Z" transform="translate(-161.33 -267.54)"/><path class="h" d="M193.68,417.85l2.52-5.73-1.09,6a2.56,2.56,0,0,1-2.93,1.87,2.53,2.53,0,0,1-1.16-.54A3.1,3.1,0,0,0,193.68,417.85Z" transform="translate(-161.33 -267.54)"/><path class="h" d="M188.89,412.87l2.24-1.71-1.56,2.24a2.54,2.54,0,0,1-3.37.39l-.14-.12A3.63,3.63,0,0,0,188.89,412.87Z" transform="translate(-161.33 -267.54)"/><path class="h" d="M199.75,419.44l1.57-7.53h0l.15,8.1a2.7,2.7,0,0,1-2.52,2.86,2.41,2.41,0,0,1-1.6-.59C198.72,422.19,199.27,421.67,199.75,419.44Z" transform="translate(-161.33 -267.54)"/></g><path class="n" d="M202.6,393.61l-12.38.85s-3.26-4.13-2.51-20.51l.81-8.56a9.19,9.19,0,0,1,10-8.28h0a9.2,9.2,0,0,1,8.29,10S207.19,378.23,202.6,393.61Z" transform="translate(-161.33 -267.54)"/><path class="d" d="M202.73,367.9a9.2,9.2,0,0,0-8.29-10l-.49,0a9.19,9.19,0,0,1,12.89,9.27s.35,11.1-4.23,26.48l-4,.27C203.07,378.76,202.73,367.9,202.73,367.9Z" transform="translate(-161.33 -267.54)"/><path class="l" d="M188.12,369.69a4.62,4.62,0,0,1,2.74-.9,4.22,4.22,0,0,1,4.41,4l0,7.53a4.21,4.21,0,0,1-4.39,4,4.57,4.57,0,0,1-3.16-1.21,86.84,86.84,0,0,1,0-9.19Z" transform="translate(-161.33 -267.54)"/><path class="l" d="M187.61,397.34a2.91,2.91,0,0,0,3.3,2.41l11-.91a2.91,2.91,0,0,0,2.86-2.92h0a2.91,2.91,0,0,0-3.3-2.42l-11,.9a2.9,2.9,0,0,0-2.86,2.92Z" transform="translate(-161.33 -267.54)"/><path class="d" d="M203.81,397.11a2.91,2.91,0,0,0-3.3-2.42l-11,.9a3.42,3.42,0,0,0-1.75.65,3.14,3.14,0,0,1,2.69-1.84l11-.9a2.91,2.91,0,0,1,3.3,2.42,2.57,2.57,0,0,1-1.11,2.26A2.32,2.32,0,0,0,203.81,397.11Z" transform="translate(-161.33 -267.54)"/><path class="n" d="M289.66,374.14s-16.16-16.76-34.46-6c-6.6,3.86-9.08,6.32-9.08,6.32l8.38,15.53s16.47-4.13,27.82-.14c0,0,2.59.7,3.76-.94Z" transform="translate(-161.33 -267.54)"/><path class="l" d="M280.94,372.4l-7.1-2.52a4.16,4.16,0,0,1-2.41-5.11,32.8,32.8,0,0,1,14.15,6A4.06,4.06,0,0,1,280.94,372.4Z" transform="translate(-161.33 -267.54)"/><path class="d" d="M256.18,369.86c-5,2.29-8.71,3.48-10.05,4.55h0s2.48-2.45,9.08-6.32c18.31-10.72,34.46,6,34.46,6l-.66,2.73C286.07,374.12,272.25,362.44,256.18,369.86Z" transform="translate(-161.33 -267.54)"/><path class="l" d="M311.32,396.66s-3.84,2.77-12.68-3.85a21.62,21.62,0,0,0-11.2-2.31s-2.55.13-2.5-2.89,3.8-13.69,3.8-13.69.45-1.21,3-.13,8.19,1.49,12.56,6.23c0,0,1-1.56,4.34-8.48s7.52-1.44,7.52-1.44Z" transform="translate(-161.33 -267.54)"/><path class="d" d="M315.39,372s-4.18-5.48-7.52,1.44-3.54,7.95-3.54,7.95c-4.37-4.74-10.77-4.61-13.36-5.69-1.69-.7-2.46-.44-2.79-.17.34-1,.57-1.66.57-1.66s.45-1.21,3-.13,8.19,1.49,12.56,6.23c0,0,1-1.56,4.34-8.48s7.52-1.44,7.52-1.44l-4.88,26.57a2.59,2.59,0,0,1-.5.24Z" transform="translate(-161.33 -267.54)"/><path class="e" d="M308.2,390c-.53,3.39.59,6.38,2.52,6.69h0c1.94.31,3.94-2.19,4.48-5.58l2.37-14.87c.54-3.39-.59-6.38-2.52-6.69h0c-1.93-.31-3.93,2.19-4.47,5.57Z" transform="translate(-161.33 -267.54)"/><path class="d" d="M316.25,371.71c-1.93-.31-3.93,2.19-4.47,5.57l-2.38,14.88a9.47,9.47,0,0,0,.17,3.9c-1.19-1.08-1.78-3.46-1.37-6.09l2.38-14.88c.54-3.38,2.54-5.88,4.47-5.57,1.11.18,1.94,1.26,2.36,2.79A2.24,2.24,0,0,0,316.25,371.71Z" transform="translate(-161.33 -267.54)"/><path class="e" d="M215,356a1.49,1.49,0,0,0,.1,2.1h0a1.49,1.49,0,0,0,2.1,0l4.41-4.62a1.48,1.48,0,0,0-.1-2.09h0a1.48,1.48,0,0,0-2.09,0Z" transform="translate(-161.33 -267.54)"/><path class="d" d="M221.82,352.3a1.48,1.48,0,0,0-2.09,0l-4.42,4.62a1.4,1.4,0,0,0-.36.91A1.45,1.45,0,0,1,215,356l4.42-4.62a1.48,1.48,0,0,1,2.09,0,1.53,1.53,0,0,1,.47,1.19A1.47,1.47,0,0,0,221.82,352.3Z" transform="translate(-161.33 -267.54)"/><path class="p" d="M231.31,354.18a2.37,2.37,0,1,0,4.72.5l0-.92-4.72-.18Z" transform="translate(-161.33 -267.54)"/><ellipse class="l" cx="233.69" cy="353.84" rx="2.09" ry="2.37" transform="translate(-304.28 281.15) rotate(-83.91)"/><path class="q" d="M238.25,360.16a1.85,1.85,0,1,0,3.68.4l0-.72-3.69-.14Z" transform="translate(-161.33 -267.54)"/><ellipse class="r" cx="240.11" cy="359.89" rx="1.63" ry="1.85" transform="translate(-304.59 292.86) rotate(-83.9)"/><path class="q" d="M245.6,357.1a1.85,1.85,0,0,0,3.68.39l0-.72-3.69-.14Z" transform="translate(-161.33 -267.54)"/><ellipse class="r" cx="247.45" cy="356.83" rx="1.63" ry="1.85" transform="translate(-294.98 297.43) rotate(-83.9)"/><path class="p" d="M242.58,349.63a2.37,2.37,0,1,0,4.72.5l0-.92L242.6,349Z" transform="translate(-161.33 -267.54)"/><ellipse class="l" cx="244.96" cy="349.29" rx="2.09" ry="2.37" transform="translate(-289.64 288.35) rotate(-83.92)"/><path class="p" d="M237.16,351.82a2.37,2.37,0,1,0,4.72.5l0-.92-4.72-.18Z" transform="translate(-161.33 -267.54)"/><ellipse class="l" cx="239.54" cy="351.47" rx="2.09" ry="2.37" transform="translate(-296.75 284.75) rotate(-83.9)"/><circle class="n" cx="31.43" cy="36.88" r="1.77"/></g></svg>