<svg xmlns="http://www.w3.org/2000/svg" xmlns:xlink="http://www.w3.org/1999/xlink" viewBox="0 0 338.81 271.56"><defs><style>.a{fill:url(#a);}.b{fill:url(#b);}</style><linearGradient id="a" x1="16.27" y1="11.95" x2="293.57" y2="236.5" gradientUnits="userSpaceOnUse"><stop offset="0" stop-color="#000c54"/><stop offset="0.13" stop-color="#0d115a"/><stop offset="0.36" stop-color="#311e6b"/><stop offset="0.68" stop-color="#6a3285"/><stop offset="1" stop-color="#a949a3"/></linearGradient><linearGradient id="b" x1="-53.66" y1="-8.69" x2="166.33" y2="113.05" gradientUnits="userSpaceOnUse"><stop offset="0" stop-color="#60308b"/><stop offset="1" stop-color="#a949a3"/></linearGradient></defs><title>cloud_top</title><path class="a" d="M339,9.74A28.07,28.07,0,0,0,337.23,0H.54V99.31l-.38,101v70.43a24.23,24.23,0,0,0,30.43-23.42,24.11,24.11,0,0,0-4.64-14.26A13.78,13.78,0,0,0,41.25,214,13.63,13.63,0,0,0,54.5,208a17.68,17.68,0,0,0,30.67-11.89,17.69,17.69,0,0,0,13-8.88,24.21,24.21,0,0,0,37-6.54,17.61,17.61,0,0,0,22.28,3.36,13.77,13.77,0,0,0,23.66.68,13.77,13.77,0,0,0,24.55-12.15,13.78,13.78,0,0,0,9.38-13,13.75,13.75,0,0,0,18.29-4,17.68,17.68,0,0,0,30.79-17.23,17.7,17.7,0,0,0,15.46-13.71A17.69,17.69,0,0,0,305,100.73a13.35,13.35,0,0,0-3.72-24.8,13.11,13.11,0,0,0-3.48-11.26,13.29,13.29,0,0,0,3.67-9.17,13.5,13.5,0,0,0-.07-1.36,14.38,14.38,0,0,0,12.14.54A8.08,8.08,0,1,0,322.5,41.3a14.38,14.38,0,0,0-1.1-5.49A28.13,28.13,0,0,0,339,9.74Z" transform="translate(-0.15)"/><path class="b" d="M236.85,34.77A20.73,20.73,0,0,0,225,16a20.53,20.53,0,0,0,.55-16H.54v136l-.38.13v30.69a16.11,16.11,0,0,0,21-15.36,16,16,0,0,0-1.15-6,20.69,20.69,0,0,0,23.29-11.67,29.49,29.49,0,0,0,35.67,2.82,16.09,16.09,0,0,0,27.52,10.38,20.74,20.74,0,1,0,35.31-21.73,20.75,20.75,0,0,0,12.17-15.88,20.72,20.72,0,0,0,29.4-18.85,20.93,20.93,0,0,0-.13-2.29,29.51,29.51,0,0,0,40.1-34.13A20.74,20.74,0,0,0,236.85,34.77Z" transform="translate(-0.15)"/></svg>