<svg xmlns="http://www.w3.org/2000/svg" xmlns:xlink="http://www.w3.org/1999/xlink" viewBox="0 0 351.25 351.05"><defs><style>.a{fill:url(#a);}.b{fill:url(#b);}</style><linearGradient id="a" x1="448.28" y1="544.45" x2="842.09" y2="226.73" gradientUnits="userSpaceOnUse"><stop offset="0" stop-color="#000c54"/><stop offset="0.15" stop-color="#0d1159"/><stop offset="0.44" stop-color="#311d65"/><stop offset="0.82" stop-color="#6a3179"/><stop offset="1" stop-color="#873b83"/></linearGradient><linearGradient id="b" x1="1196.48" y1="497.02" x2="938.12" y2="869.07" gradientTransform="matrix(-0.93, 0.36, -0.36, -0.93, 1937.93, 598.51)" gradientUnits="userSpaceOnUse"><stop offset="0" stop-color="#60308b"/><stop offset="1" stop-color="#a949a3"/></linearGradient></defs><title>cloud_bottom</title><path class="a" d="M750.5,149a31.85,31.85,0,0,0-29.56,43.11,31.87,31.87,0,0,0-16.19,23.37,43.61,43.61,0,0,0-58,34.9,31.73,31.73,0,0,0-39.64,8.76,24.81,24.81,0,0,0-40.22,14.16,24.81,24.81,0,0,0-33.43,36.3,24.83,24.83,0,0,0-7.37,27.91A24.76,24.76,0,0,0,498,356a31.86,31.86,0,0,0-40.63,48.88,31.89,31.89,0,0,0-17.14,33.05,31.86,31.86,0,0,0-27.26,56.7,24.12,24.12,0,0,0-3.44,5.35h341Z" transform="translate(-399.28 -148.95)"/><path class="b" d="M750.54,273A29,29,0,0,0,716,289.27a37.36,37.36,0,1,0-45.33,59.37,37.38,37.38,0,0,0-10.21,34.56,37.33,37.33,0,0,0-37.25,50.69,37.71,37.71,0,0,0,1.71,3.77,53.18,53.18,0,0,0-54,62.34H750.54Z" transform="translate(-399.28 -148.95)"/></svg>