<svg xmlns="http://www.w3.org/2000/svg" viewBox="0 0 256 256"><defs><style>.a{fill:#fff;}.b{fill:#ffca28;}</style></defs><title>logo</title><path class="a" d="M255.85,219a14,14,0,0,0-10.42-11.62c-1-.31-11.31-3.81-21-14.65h0a43.8,43.8,0,0,1-3.71-4.73A118.56,118.56,0,1,0,110,246.2q4.18.29,8.35.29a118.76,118.76,0,0,0,61.73-17.3c2.66,1.66,5.62,3.42,8.92,5.28,29.46,16.64,58.71-.5,59.94-1.24A14.27,14.27,0,0,0,255.85,219Z"/><path class="b" d="M213.84,202.17c-5.22-5.84-8-11-9.42-15.06a104.46,104.46,0,1,0-24.28,24.95,146.26,146.26,0,0,0,15.86,10c22.59,12.76,45.64-1.05,45.64-1.05S227.22,217.15,213.84,202.17Z"/><path d="M87.84,100.37C69,119.21,40.21,140.1,17.9,155.24a103.49,103.49,0,0,0,16.31,34c24.12-16.16,57.64-40.14,80-62.51,25.68-25.68,50.08-62.61,63.56-84.47a103.47,103.47,0,0,0-34.36-15.43C130.47,47.5,109.23,79,87.84,100.37Z"/><path d="M140.9,153.43c-21.82,21.82-57,46.41-80,61.58a103.67,103.67,0,0,0,42.63,16.14c21.46-15,46.08-33.69,63.73-51.35,20.43-20.43,40-48,54-69.38A103.63,103.63,0,0,0,203.74,68C192.92,86.13,167,127.28,140.9,153.43Z"/></svg>